<svg xmlns="http://www.w3.org/2000/svg" viewBox="0 0 709 242"><defs><style>.cls-1{fill:#ffe227;}.cls-2{fill:#fff;}.cls-3{font-size:78px;font-family:Aileron-Bold, Aileron;font-weight:700;}.cls-4{letter-spacing:-0.02em;}</style></defs><g id="logo_-" data-name="logo -"><g id="Logo_copia" data-name="Logo copia"><circle class="cls-1" cx="197.27" cy="120" r="72.27"/><path id="M" d="M161.48,112.68v51.68H139.63V119.2A132,132,0,0,0,139,105c-1.11-9-5.86-13.86-14.25-13.86-9.81,0-15.36,8.64-15.36,28.69v44.51H87.7V119.2A132,132,0,0,0,87.07,105c-1.11-9-6-13.86-14.41-13.86-9.81,0-15.2,8.64-15.2,28.69v44.51H35.62V77.63H57.46v13.2L63.64,80.4c4.75-3.42,10.29-5.05,17.89-5.05,13.77,0,22.48,7,25.81,16.46l8.23-11.41c4.75-3.42,10.45-5.05,18.05-5.05,16,0,25.17,9.62,27.07,21.52A108.49,108.49,0,0,1,161.48,112.68Z"/><path id="S" class="cls-2" d="M231.58,105.05H209.73c-1.42-8-5.69-12.56-13-12.56-6.49,0-10,3.92-10,9.29,0,6.53,5.22,10,19.16,13.54,17.25,4.56,27.39,11.73,27.39,27.71,0,17.44-15.36,25.92-34.68,25.92-20.42,0-34.83-9.13-37.2-28.69H183.3c1.74,9.45,8.07,13.85,15.67,13.85,7,0,12.35-3.09,12.35-9.45,0-6.68-5.54-10.43-20.11-14.18-15.67-4.08-26.44-11.09-26.44-26.09,0-16.62,13.3-26.73,33.41-26.73S229.68,89.23,231.58,105.05Z"/><g id="Capa_4" data-name="Capa 4"><text class="cls-3" transform="translate(298.71 116.33)">Mar<tspan class="cls-4" x="143.44" y="0">k</tspan><tspan x="187.43" y="0">eting</tspan><tspan x="0" y="68.6">Social</tspan></text></g></g></g></svg>